<?xml version="1.0" standalone="no"?>
<!DOCTYPE svg PUBLIC "-//W3C//DTD SVG 20010904//EN"
 "http://www.w3.org/TR/2001/REC-SVG-20010904/DTD/svg10.dtd">
<svg version="1.0" xmlns="http://www.w3.org/2000/svg"
 width="700.000000pt" height="700.000000pt" viewBox="0 0 700.000000 700.000000"
 preserveAspectRatio="xMidYMid meet">
<metadata>
Created by potrace 1.11, written by Peter Selinger 2001-2013
</metadata>
<g transform="translate(0.000000,700.000000) scale(0.100000,-0.100000)"
fill="#000000" stroke="none">
<path d="M6298 6154 c-2 -1 -34 -5 -73 -8 -97 -8 -127 -14 -230 -41 -345 -93
-651 -305 -955 -661 -124 -145 -197 -254 -280 -419 -52 -102 -139 -304 -146
-335 0 -3 -4 -12 -7 -20 -4 -8 -23 -64 -42 -124 -83 -254 -182 -681 -235
-1011 -30 -186 -30 -187 -35 -215 -4 -23 -8 -50 -20 -147 -2 -21 -11 -90 -19
-153 -8 -63 -18 -142 -21 -175 -4 -33 -9 -68 -11 -77 -5 -17 -56 -18 -881 -18
l-875 0 7 63 c3 34 8 76 10 92 2 17 6 55 9 85 4 30 8 69 10 85 2 17 7 62 11
100 4 39 8 77 10 85 2 14 14 118 20 180 11 112 22 199 42 320 8 52 16 104 17
115 5 38 18 111 32 185 23 123 25 134 28 155 6 39 47 251 61 314 l14 63 -272
-5 c-150 -3 -294 -8 -322 -11 -78 -9 -159 -19 -165 -21 -3 0 -26 -4 -51 -8
-48 -8 -83 -14 -121 -21 -13 -2 -58 -14 -101 -26 -43 -12 -88 -23 -101 -26
-38 -7 -230 -80 -322 -123 -306 -144 -590 -383 -751 -634 -86 -134 -181 -357
-207 -489 -4 -16 -8 -40 -11 -55 -3 -16 -8 -35 -10 -43 -18 -65 -34 -413 -21
-472 3 -13 8 -47 11 -76 5 -56 25 -158 45 -231 11 -42 12 -43 29 -25 10 11
107 105 216 209 231 221 275 264 275 271 0 2 -11 26 -24 52 -13 26 -37 85 -54
132 -27 76 -38 117 -57 225 -12 69 -6 266 10 335 88 370 393 577 950 645 28 3
137 8 243 12 162 5 192 4 192 -8 0 -8 -4 -50 -9 -94 -6 -44 -13 -107 -16 -140
-4 -33 -8 -73 -10 -88 -2 -15 -6 -60 -10 -100 -4 -40 -9 -81 -11 -92 -2 -10
-6 -49 -10 -85 -3 -36 -7 -76 -9 -90 -2 -14 -7 -52 -10 -85 -3 -33 -8 -73 -10
-90 -2 -16 -7 -61 -10 -100 -4 -38 -8 -82 -11 -96 -2 -14 -6 -52 -9 -85 -3
-32 -10 -93 -15 -134 -5 -41 -12 -104 -16 -140 -3 -36 -8 -73 -10 -83 -1 -9
-6 -54 -9 -99 -3 -45 -8 -84 -10 -87 -1 -4 -6 -42 -9 -86 -4 -44 -9 -87 -11
-95 -2 -8 -6 -46 -10 -85 -5 -60 -26 -242 -40 -355 -2 -19 -7 -55 -9 -80 -13
-116 -17 -146 -21 -160 -2 -8 -7 -35 -10 -60 -3 -25 -8 -52 -10 -60 -2 -8 -7
-34 -10 -57 -18 -132 -75 -333 -116 -417 -59 -119 -118 -189 -236 -283 -69
-54 -87 -64 -110 -59 -16 3 -55 8 -88 11 -59 6 -86 9 -178 21 l-47 6 -118
-115 c-64 -64 -155 -152 -202 -196 -74 -71 -81 -81 -60 -82 27 -1 63 -3 250
-13 251 -13 484 -25 615 -31 55 -3 145 -8 200 -11 55 -3 139 -7 187 -9 l86 -4
44 40 c153 144 326 319 320 322 -6 4 -57 8 -297 23 -44 2 -107 6 -140 9 -33 2
-109 7 -170 10 -60 4 -111 8 -112 9 -1 1 33 19 75 41 42 22 103 57 134 77 31
21 60 38 63 38 13 0 131 95 180 144 74 74 112 135 165 261 28 67 75 257 85
344 3 30 8 57 9 60 2 3 7 35 11 71 4 36 8 72 10 80 1 8 6 44 10 80 3 36 8 76
10 90 2 14 7 57 11 95 3 39 8 77 9 85 1 8 6 49 10 90 3 41 9 83 11 93 5 16 56
17 880 17 l875 0 -6 -77 c-4 -43 -9 -86 -10 -95 -2 -9 -6 -48 -10 -85 -3 -37
-8 -84 -10 -103 -3 -19 -7 -66 -10 -105 -4 -38 -8 -77 -10 -85 -2 -8 -7 -53
-10 -100 -3 -47 -8 -92 -10 -100 -2 -8 -7 -55 -10 -105 -6 -90 -10 -136 -19
-230 -13 -133 -23 -269 -31 -415 -4 -63 -8 -131 -10 -150 -2 -19 -6 -126 -10
-238 l-6 -203 33 14 c33 14 413 187 538 245 36 16 170 78 298 136 298 136 309
142 360 194 42 42 43 44 40 100 -2 31 -7 57 -13 56 -5 0 -53 -21 -105 -46
-272 -133 -463 -114 -521 52 -17 50 -18 76 -14 270 3 118 7 249 9 290 7 105
16 238 21 285 2 22 7 72 10 110 3 39 8 93 10 120 3 28 7 70 10 95 2 25 7 74
10 110 4 36 8 76 10 90 2 14 7 59 10 100 4 41 9 89 11 105 2 17 6 53 9 80 13
117 16 151 20 175 4 27 16 139 20 180 1 14 5 50 9 80 13 105 16 125 21 180 3
30 7 66 10 80 2 14 7 50 10 80 3 30 7 62 10 70 2 8 6 42 10 75 6 54 15 126 29
225 3 19 13 85 21 145 9 61 18 126 21 145 3 19 12 71 20 115 8 44 16 94 18
110 2 17 8 57 14 90 12 64 15 78 37 195 8 41 17 89 20 105 3 17 22 95 42 175
87 355 164 520 308 663 143 143 335 210 572 201 136 -5 277 -50 411 -132 l74
-45 81 81 c45 45 149 146 231 226 83 81 145 149 142 155 -4 6 -16 11 -27 11
-11 0 -28 4 -38 10 -21 11 -151 46 -201 54 -83 13 -324 28 -332 20z"/>
</g>
</svg>
