<?xml version="1.0" standalone="no"?>
<!DOCTYPE svg PUBLIC "-//W3C//DTD SVG 20010904//EN"
 "http://www.w3.org/TR/2001/REC-SVG-20010904/DTD/svg10.dtd">
<svg version="1.0" xmlns="http://www.w3.org/2000/svg"
 width="700.000000pt" height="700.000000pt" viewBox="0 0 700.000000 700.000000"
 preserveAspectRatio="xMidYMid meet">
<metadata>
Created by potrace 1.11, written by Peter Selinger 2001-2013
</metadata>
<g transform="translate(0.000000,700.000000) scale(0.100000,-0.100000)"
fill="#000000" stroke="none">
<path d="M3299 6996 c-2 -2 -47 -7 -99 -10 -52 -4 -111 -9 -130 -12 -90 -13
-228 -36 -260 -44 -19 -5 -51 -12 -70 -15 -115 -19 -458 -127 -577 -181 -28
-13 -54 -24 -58 -24 -13 0 -303 -148 -369 -188 -37 -23 -69 -42 -71 -42 -2 0
-47 -29 -100 -65 -419 -283 -756 -627 -1024 -1048 -56 -88 -66 -117 -42 -117
5 0 66 -34 137 -75 71 -41 132 -75 136 -75 4 0 40 51 81 113 105 160 192 273
317 411 305 336 674 597 1100 779 222 95 478 172 680 203 19 3 60 9 90 14 30
5 84 12 120 15 93 8 141 14 150 20 4 2 7 79 7 170 0 146 -4 184 -18 171z"/>
<path d="M3683 6821 c0 -150 2 -171 16 -172 9 0 25 -2 36 -3 11 -2 55 -6 98
-10 43 -4 88 -9 100 -11 12 -2 67 -11 122 -20 273 -46 584 -149 848 -281 85
-43 90 -44 108 -28 10 9 19 20 19 24 0 5 32 63 71 129 39 67 70 123 68 126 -7
6 -202 102 -264 130 -213 94 -496 183 -735 230 -90 18 -101 20 -195 31 -33 3
-63 8 -66 10 -4 2 -56 6 -116 10 l-110 6 0 -171z"/>
<path d="M5415 6262 c-37 -64 -76 -131 -86 -148 l-19 -31 67 -49 c312 -227
628 -577 835 -924 55 -91 178 -330 178 -344 0 -3 13 -34 29 -68 30 -67 109
-303 135 -403 14 -56 18 -74 31 -142 3 -16 8 -35 10 -43 2 -8 6 -28 9 -45 25
-167 26 -176 41 -315 13 -121 5 -585 -10 -610 -2 -3 -6 -34 -10 -70 -4 -36 -9
-74 -11 -85 -3 -11 -7 -36 -10 -55 -23 -148 -126 -495 -196 -655 -223 -514
-576 -970 -993 -1280 -44 -33 -82 -62 -85 -65 -10 -11 -178 -118 -245 -157
-193 -112 -502 -248 -655 -288 -8 -2 -64 -17 -125 -34 -96 -25 -211 -51 -296
-65 -15 -2 -71 -9 -125 -16 -55 -6 -115 -13 -134 -15 -19 -2 -42 -4 -51 -5
-15 0 -16 -19 -15 -172 1 -109 5 -173 11 -172 6 1 53 5 105 8 52 4 111 9 130
12 717 106 1271 345 1795 774 97 79 87 71 225 205 311 303 580 688 744 1065
16 36 36 83 46 105 65 147 152 441 194 655 48 246 61 383 60 670 0 244 -16
461 -39 550 -2 8 -7 35 -10 60 -4 25 -11 65 -17 90 -5 25 -12 56 -14 69 -55
283 -217 698 -387 986 -54 90 -164 262 -177 275 -3 3 -32 41 -64 85 -33 44
-62 82 -65 85 -3 3 -38 43 -78 90 -73 87 -283 295 -388 385 -64 54 -230 181
-257 196 -14 7 -27 -10 -83 -109z"/>
<path d="M3288 6245 c-2 -2 -34 -6 -73 -10 -89 -9 -294 -44 -380 -66 -163 -41
-346 -107 -510 -184 -124 -58 -130 -63 -112 -84 8 -9 28 -41 44 -71 48 -87
265 -464 273 -473 4 -5 34 5 67 21 313 158 728 233 1098 199 185 -17 419 -73
565 -134 374 -156 661 -373 893 -674 176 -228 312 -513 375 -784 42 -179 53
-271 56 -453 8 -462 -133 -896 -416 -1282 -118 -160 -400 -423 -537 -500 -14
-7 -2 -30 223 -420 14 -25 40 -71 58 -103 18 -31 36 -57 41 -57 16 0 275 183
302 214 6 6 28 26 50 45 318 268 604 675 759 1080 43 113 94 271 103 321 2 14
10 50 18 80 7 30 16 69 18 85 19 123 28 188 35 242 10 72 8 486 -2 553 -4 25
-14 90 -22 145 -47 311 -168 654 -333 942 -70 121 -246 367 -315 439 -6 6 -41
42 -77 80 -78 82 -165 164 -233 219 -27 22 -58 48 -70 59 -41 36 -283 193
-369 240 -273 149 -584 254 -887 301 -52 8 -115 17 -140 21 -43 7 -496 14
-502 9z"/>
<path d="M1824 5679 c-38 -28 -73 -57 -79 -63 -5 -6 -26 -24 -45 -40 -119 -96
-335 -331 -420 -456 -13 -19 -27 -37 -30 -40 -3 -3 -35 -50 -70 -105 -101
-158 -180 -320 -276 -565 -32 -84 -96 -328 -110 -419 -3 -20 -7 -47 -10 -61
-2 -14 -6 -47 -10 -75 -3 -27 -8 -63 -11 -80 -9 -52 -10 -471 -1 -537 52 -372
102 -564 215 -828 46 -105 124 -259 134 -263 5 -2 527 297 554 317 14 10 8 27
-44 136 -137 288 -204 578 -205 890 0 112 11 286 19 300 1 3 5 28 9 56 9 79
60 269 101 379 128 343 332 628 636 890 l46 40 -167 288 -168 288 -68 -52z"/>
<path d="M3360 5119 c-121 -12 -175 -20 -207 -30 -17 -6 -44 -12 -59 -15 -114
-21 -347 -123 -479 -211 -448 -297 -712 -759 -739 -1289 l-4 -81 193 1 c106 1
196 3 198 6 3 3 7 38 8 78 5 166 63 365 152 524 114 204 302 385 512 494 93
48 233 98 321 113 32 6 75 13 94 16 39 7 264 8 295 2 11 -3 40 -8 65 -12 175
-28 369 -110 521 -221 93 -68 228 -209 291 -305 71 -108 108 -183 146 -294 26
-78 37 -124 57 -243 2 -13 5 -50 6 -82 1 -33 5 -63 8 -68 3 -5 92 -9 196 -8
l190 1 -1 47 c-5 225 -53 429 -151 648 -120 266 -361 535 -623 696 -176 108
-415 196 -595 219 -27 3 -59 8 -70 11 -34 8 -256 10 -325 3z"/>
<path d="M307 4933 c-42 -70 -191 -508 -211 -619 -3 -13 -7 -32 -10 -42 -3 -9
-7 -29 -10 -45 -7 -37 -25 -136 -31 -166 -2 -13 -7 -49 -11 -80 -3 -31 -8 -65
-10 -75 -25 -132 -24 -717 1 -816 2 -8 6 -42 10 -75 3 -33 8 -67 10 -75 3 -8
7 -31 9 -50 14 -111 104 -454 146 -555 4 -11 27 -69 50 -130 56 -145 154 -346
235 -480 36 -60 65 -112 65 -116 0 -4 3 -9 8 -11 4 -2 20 -23 37 -48 67 -101
228 -310 290 -376 91 -97 218 -224 278 -278 294 -266 675 -502 1047 -649 134
-53 357 -125 440 -142 8 -2 38 -9 65 -15 114 -27 236 -49 308 -56 34 -3 65 -8
68 -10 4 -2 56 -7 117 -10 l111 -7 -1 172 -2 171 -25 1 c-14 0 -33 2 -42 4
-10 1 -52 6 -95 10 -43 3 -81 8 -84 10 -3 1 -29 6 -58 9 -57 7 -240 45 -332
69 -342 91 -699 259 -1000 471 -47 33 -87 63 -90 66 -3 3 -19 16 -37 28 -85
60 -262 225 -393 368 -256 279 -482 649 -614 1004 -30 82 -71 213 -107 340
-10 38 -37 165 -45 220 -3 19 -7 37 -9 41 -2 3 -7 39 -11 80 -3 40 -8 77 -10
80 -8 14 -17 236 -16 379 1 136 11 290 27 400 3 19 7 51 10 70 29 208 127 541
221 756 5 10 -54 49 -171 114 -22 12 -59 33 -82 47 -23 13 -43 20 -46 16z"/>
<path d="M3365 4123 c-38 -8 -112 -34 -164 -59 -158 -77 -290 -229 -342 -393
-102 -331 49 -675 362 -821 96 -44 178 -60 299 -56 184 5 326 65 454 192 214
213 260 542 112 809 -87 157 -274 293 -453 330 -61 13 -201 12 -268 -2z"/>
<path d="M1920 3123 c0 -21 41 -149 75 -232 79 -197 185 -360 339 -521 242
-252 539 -408 906 -476 127 -24 384 -23 525 1 258 45 503 150 708 303 145 108
291 266 392 421 83 128 183 357 210 479 l7 32 -202 0 c-182 0 -201 -2 -207
-17 -27 -80 -95 -218 -146 -295 -68 -104 -210 -252 -307 -320 -169 -119 -384
-203 -575 -223 -67 -7 -258 -8 -291 -1 -12 2 -39 7 -60 11 -78 12 -92 15 -169
40 -275 90 -496 259 -663 508 -42 63 -68 114 -108 212 l-32 80 -201 3 c-111 1
-201 -1 -201 -5z"/>
<path d="M1690 2054 c-107 -62 -202 -117 -210 -121 -9 -5 -50 -28 -92 -52
l-77 -44 47 -61 c70 -91 335 -353 433 -429 89 -69 261 -189 264 -184 3 2 216
372 250 432 13 22 35 60 49 85 14 25 26 48 26 52 0 4 -30 28 -67 55 -146 102
-267 209 -375 331 -25 28 -48 52 -50 51 -1 0 -91 -52 -198 -115z"/>
<path d="M2670 1497 c-22 -40 -45 -79 -50 -87 -14 -21 -177 -304 -212 -368
l-29 -52 48 -21 c140 -61 382 -136 528 -164 118 -22 116 -22 165 -29 130 -17
182 -20 370 -20 221 -1 330 7 475 34 28 5 61 12 75 14 51 9 128 28 210 52 47
14 92 27 100 29 14 3 80 27 125 45 164 67 156 62 142 84 -8 12 -83 140 -167
286 -84 146 -154 266 -155 268 -1 1 -40 -11 -86 -28 -318 -117 -709 -154
-1039 -100 -108 18 -266 59 -366 95 l-94 33 -40 -71z"/>
</g>
</svg>
